<svg width="853" height="824" viewBox="0 0 853 824" fill="none" xmlns="http://www.w3.org/2000/svg">
<path fill-rule="evenodd" clip-rule="evenodd" d="M494.862 79.2172C485.983 79.8582 477.576 83.5119 472.2 90.5273C466.984 97.3342 466.041 106.137 467.833 114.491C469.666 123.036 473.787 131.523 481.789 135.229C489.711 138.898 498.761 136.324 506.574 132.434C514.176 128.649 520.235 122.703 522.954 114.731C526.106 105.486 528.173 94.6106 522.093 86.9254C515.975 79.1898 504.77 78.5019 494.862 79.2172Z" fill="#F0C808"/>
<path fill-rule="evenodd" clip-rule="evenodd" d="M100.862 189.217C91.983 189.858 83.5761 193.512 78.2003 200.527C72.9843 207.334 72.0408 216.137 73.8327 224.491C75.6656 233.036 79.7869 241.523 87.7887 245.229C95.711 248.898 104.761 246.324 112.574 242.434C120.176 238.649 126.235 232.703 128.954 224.731C132.106 215.486 134.173 204.611 128.093 196.925C121.975 189.19 110.77 188.502 100.862 189.217Z" fill="#F0C808"/>
<path fill-rule="evenodd" clip-rule="evenodd" d="M525.318 191.712C609.506 228.812 726.719 218.373 767.312 300.924C810.014 387.765 775.045 500.082 713.77 574.955C658.589 642.382 562.606 647.058 476.014 656.865C406.052 664.788 340.737 650.834 275.388 624.603C193.915 591.9 88.7346 573.312 60.6615 490.143C32.1718 405.739 97.3413 321.508 148.463 248.576C193.974 183.648 250.339 119.499 328.758 107.666C401.997 96.6152 457.53 161.84 525.318 191.712Z" fill="#F0C808"/>
</svg>
