<svg width="151" height="151" viewBox="0 0 151 151" fill="none" xmlns="http://www.w3.org/2000/svg">
<circle cx="75.5" cy="75.5" r="75.5" fill="white"/>
<path d="M113.794 105.022H106.335V97.5633C106.335 96.7543 105.679 96.0986 104.87 96.0986C104.061 96.0986 103.405 96.7545 103.405 97.5633V105.022H95.9463C95.1373 105.022 94.4816 105.678 94.4816 106.487C94.4816 107.296 95.1373 107.952 95.9463 107.952H103.405V115.411C103.405 116.22 104.061 116.876 104.87 116.876C105.679 116.876 106.335 116.22 106.335 115.411V107.952H113.794C114.603 107.952 115.259 107.296 115.259 106.487C115.259 105.678 114.603 105.022 113.794 105.022Z" fill="#F0C808"/>
<path d="M104.87 87.3553C102.774 87.3553 100.756 87.7002 98.8715 88.3354L90.4021 85.6947C90.402 85.6947 90.4018 85.6945 90.4018 85.6945L84.6346 83.8965C84.0445 83.7123 83.4217 83.7393 82.8584 83.9496C82.3959 83.502 82.1184 82.8766 82.1184 82.218V79.3473C87.4125 76.5893 91.4373 71.7189 93.0684 65.8607H93.8707C96.4674 65.8607 98.5799 63.748 98.5799 61.1514V57.5559C98.5799 56.8682 98.4305 56.215 98.1643 55.6254V47.6148C98.1643 44.2979 97.4623 41.1014 96.0775 38.1143C95.7375 37.3805 94.8666 37.0611 94.1326 37.4012C93.3986 37.7414 93.0795 38.6121 93.4197 39.3461C94.6242 41.9445 95.2348 44.7266 95.2348 47.6148V53.0488C95.1295 53.017 95.0225 52.9893 94.9143 52.9646C94.9078 52.9631 94.9014 52.9615 94.8949 52.9602C94.6875 52.9139 94.4752 52.8816 94.2584 52.8639C94.2338 52.8617 94.209 52.8598 94.1842 52.8582C94.0828 52.8516 93.9809 52.8469 93.8777 52.8467C93.8752 52.8467 93.8727 52.8465 93.8701 52.8465H93.8127C93.7996 52.6514 93.783 52.4568 93.7648 52.2623L93.757 52.1766C93.7541 52.1461 93.7498 52.1154 93.7467 52.085C93.7309 51.9299 93.7133 51.7752 93.6941 51.6205C93.6881 51.5723 93.6822 51.5244 93.676 51.4762C93.6522 51.2937 93.6262 51.1117 93.5979 50.9303C93.5961 50.9191 93.5947 50.9078 93.593 50.8967L93.5908 50.8836C93.5547 50.6562 93.5145 50.4297 93.4713 50.2039L93.4516 50.1006C93.448 50.0828 93.4439 50.0654 93.4404 50.0477C93.4125 49.9076 93.3832 49.7678 93.3525 49.6283C93.3498 49.6154 93.3473 49.6023 93.3443 49.5895L93.3209 49.4814C93.3174 49.466 93.3133 49.451 93.3098 49.4355C93.2648 49.2398 93.2182 49.0447 93.168 48.8504C93.1303 48.7053 93.0691 48.5719 92.9934 48.4494C92.9848 48.4355 92.9785 48.4197 92.9695 48.4061C92.9547 48.3836 92.9359 48.3646 92.9197 48.3432C92.6492 47.9816 92.2221 47.7527 91.75 47.7527C91.7439 47.7527 91.7377 47.7527 91.7313 47.7527L91.6783 47.7533C91.4219 47.7566 91.1707 47.8271 90.95 47.958C88.4195 49.4582 85.0953 50.2188 81.0697 50.2188C80.5613 50.2188 80.0531 50.1988 79.5455 50.1617C78.5648 50.09 77.5857 49.9525 76.61 49.7703C76.5756 49.7639 76.541 49.7584 76.5064 49.752C74.6523 49.3994 72.8109 48.8824 70.9932 48.3287C70.3355 48.1283 69.6807 47.9236 69.0299 47.7197C63.6863 46.0449 58.1613 44.3129 52.6451 45.876C52.1949 46.0035 51.8328 46.3385 51.6705 46.7775C51.6695 46.7805 51.6686 46.7832 51.6676 46.7861C51.59 46.9963 51.5143 47.2133 51.4369 47.4465C51.4211 47.4937 51.4057 47.5412 51.3902 47.5885C51.3859 47.602 51.3816 47.6145 51.3771 47.6281L51.3541 47.6992C51.3053 47.8521 51.2578 48.008 51.2115 48.1656C51.1885 48.2437 51.1666 48.3219 51.1445 48.4002C51.1314 48.4465 51.1178 48.492 51.1051 48.5387L51.0822 48.6234C51.073 48.6574 51.066 48.6908 51.0568 48.7248C51.0025 48.9293 50.9514 49.1344 50.9031 49.3404C50.8914 49.3904 50.877 49.4408 50.8656 49.4908L50.8582 49.526C50.85 49.5627 50.8428 49.5988 50.8348 49.6355C50.8172 49.7158 50.7996 49.7963 50.783 49.8768C50.7455 50.0566 50.71 50.235 50.6783 50.409C50.6766 50.4174 50.675 50.4258 50.6736 50.4342C50.6713 50.4471 50.6693 50.4609 50.667 50.474C50.6564 50.5328 50.6473 50.5918 50.6373 50.6506C50.6131 50.7943 50.5896 50.9437 50.5668 51.0977C50.5523 51.1949 50.5373 51.2922 50.5242 51.3898L50.5189 51.427C50.4973 51.5893 50.4777 51.7568 50.4592 51.9268C50.4486 52.0232 50.4389 52.1197 50.4295 52.2166C50.4271 52.2404 50.4244 52.2635 50.4223 52.2873L50.4104 52.4199C50.4029 52.5057 50.3975 52.5863 50.391 52.6688C50.3865 52.7281 50.3799 52.7871 50.376 52.8465H50.3188C50.316 52.8465 50.3135 52.8469 50.3107 52.8469C50.208 52.8471 50.1062 52.8516 50.0051 52.8582C49.9801 52.86 49.9551 52.8619 49.9301 52.8639C49.7139 52.8816 49.502 52.9139 49.2949 52.96C49.2877 52.9615 49.2805 52.9633 49.2732 52.965C49.1654 52.9896 49.059 53.0172 48.9541 53.049V47.6148C48.9541 36.7604 57.7848 27.9297 68.6393 27.9297H75.5488C81.001 27.9297 86.0719 30.108 89.8273 34.0637C90.3844 34.6506 91.3115 34.6742 91.8982 34.1174C92.485 33.5604 92.509 32.6332 91.952 32.0467C87.6381 27.5023 81.8127 25 75.5494 25H68.6398C56.1701 25 46.0252 35.1449 46.0252 47.6146V55.6258C45.7592 56.2152 45.6098 56.8682 45.6098 57.5559V61.1514C45.6098 63.748 47.7225 65.8607 50.3189 65.8607H51.1213C52.7523 71.7189 56.7771 76.5893 62.0711 79.3473V82.218C62.0711 82.8766 61.7934 83.502 61.3309 83.9496C60.7676 83.7393 60.1445 83.7125 59.5547 83.8963L42.184 89.3123C39.3893 90.1369 36.8762 91.5416 34.7152 93.4873C34.1141 94.0285 34.0654 94.9547 34.6066 95.5559C35.148 96.157 36.074 96.2055 36.6754 95.6645C38.5113 94.0115 40.6467 92.8187 43.0225 92.1193C43.0299 92.117 43.0373 92.1148 43.0447 92.1125L53.8143 88.7547L64.1031 99.0352C64.7461 99.6775 65.5963 100.002 66.4484 100.002C67.2262 100.002 68.0057 99.7316 68.6303 99.1855L72.0945 96.1559L75.5588 99.1855C76.1834 99.7318 76.9627 100.002 77.7406 100.002C78.5926 100.002 79.443 99.6777 80.0857 99.0354L90.3746 88.7549L94.949 90.1813C93.8668 90.8553 92.8644 91.6354 91.9506 92.5023C91.9037 92.5467 91.8572 92.5912 91.8109 92.6359C91.7455 92.6992 91.6799 92.7625 91.6154 92.8268C88.4592 95.9604 86.4051 100.202 86.0908 104.912C86.0887 104.943 86.0867 104.974 86.0848 105.006C86.0752 105.161 86.0676 105.318 86.0617 105.474C86.06 105.519 86.058 105.564 86.0566 105.609C86.051 105.798 86.0473 105.988 86.0473 106.178C86.0473 106.34 86.0494 106.501 86.0533 106.662C86.0535 106.67 86.0539 106.678 86.0541 106.685C86.1826 111.584 88.1691 116.126 91.5578 119.496H42.2166V106.178C42.2166 105.369 41.5609 104.713 40.752 104.713C39.943 104.713 39.2873 105.369 39.2873 106.178V119.496H31.4205C31.3191 119.496 31.2369 119.414 31.2369 119.312V107.876C31.2369 105.399 31.7779 103.014 32.8449 100.786C33.1945 100.057 32.8863 99.182 32.1568 98.8326C31.4271 98.4834 30.5525 98.7912 30.2029 99.5209C28.9453 102.147 28.3076 104.958 28.3076 107.876V119.312C28.3076 121.029 29.7041 122.426 31.4207 122.426H95.3781C98.1664 124.061 101.41 125 104.87 125C115.249 125 123.692 116.556 123.692 106.178C123.692 95.7988 115.248 87.3553 104.87 87.3553ZM93.6721 62.9062C93.7316 62.4572 93.7771 62.0039 93.8088 61.5467C93.8125 61.4947 93.8154 61.4428 93.8187 61.391C93.8295 61.2178 93.8381 61.0439 93.8449 60.8697C93.8471 60.8111 93.8498 60.7523 93.8516 60.6937C93.8582 60.4729 93.8627 60.2514 93.8627 60.0289V55.776H93.8705C93.8721 55.776 93.8736 55.7762 93.8754 55.7762C93.9469 55.7764 94.0176 55.7818 94.0875 55.7904C94.1061 55.7928 94.1242 55.7961 94.1424 55.7988C94.2 55.8078 94.2568 55.8191 94.3127 55.8338C94.3266 55.8373 94.3406 55.8406 94.3543 55.8445C94.4963 55.885 94.6326 55.9428 94.7598 56.0164C94.767 56.0207 94.774 56.0252 94.7812 56.0295C94.8395 56.0643 94.8955 56.1023 94.9494 56.1436C94.9555 56.148 94.9615 56.1523 94.9674 56.157C95.0844 56.2488 95.19 56.3559 95.2818 56.4758C95.2879 56.4836 95.2937 56.4916 95.2996 56.4996C95.3438 56.5594 95.3852 56.6215 95.4221 56.6871C95.4227 56.6881 95.4234 56.6891 95.424 56.6902C95.5674 56.9467 95.65 57.2416 95.65 57.5557V61.1512C95.65 62.1326 94.8516 62.9311 93.8701 62.9311H93.6689C93.6701 62.9229 93.6709 62.9146 93.6721 62.9062ZM50.3189 62.9314C49.3375 62.9313 48.5391 62.1328 48.5391 61.1514V57.5559C48.5391 57.24 48.6227 56.9437 48.7676 56.6863C48.8039 56.6217 48.8447 56.5605 48.8883 56.5018C48.8951 56.4926 48.9018 56.4836 48.9086 56.4746C48.9998 56.3557 49.1047 56.2494 49.2207 56.1582C49.2275 56.1527 49.2348 56.1479 49.2416 56.1426C49.2943 56.1023 49.3494 56.065 49.4062 56.0309C49.4143 56.026 49.4223 56.0209 49.4305 56.016C49.557 55.9426 49.6928 55.8854 49.8342 55.8449C49.8484 55.8408 49.8629 55.8375 49.8771 55.8338C49.9326 55.8195 49.9891 55.8082 50.0461 55.7992C50.0646 55.7963 50.0832 55.793 50.102 55.7906C50.1717 55.782 50.242 55.7766 50.3133 55.7764C50.3152 55.7764 50.317 55.7762 50.3189 55.7762L50.3268 60.0291C50.3268 60.2518 50.3312 60.4734 50.3379 60.6945C50.3396 60.7527 50.3424 60.8109 50.3445 60.8691C50.3512 61.0437 50.3598 61.2178 50.3707 61.3914C50.374 61.4434 50.377 61.4951 50.3807 61.5471C50.4123 62.0043 50.4578 62.4576 50.5174 62.9066C50.5186 62.9148 50.5191 62.9232 50.5203 62.9314H50.3189ZM53.6631 63.9281C53.6479 63.8563 53.633 63.7842 53.6187 63.7121C53.6029 63.6322 53.5875 63.5523 53.5727 63.4721C53.5561 63.382 53.54 63.2918 53.5248 63.2016C53.5137 63.1357 53.5025 63.0697 53.492 63.0035C53.4752 62.8977 53.4596 62.7914 53.4445 62.6852C53.4369 62.6312 53.4291 62.5773 53.4219 62.5232C53.4062 62.4055 53.3922 62.2875 53.3787 62.1695C53.3736 62.124 53.368 62.0785 53.3631 62.0328C53.3498 61.9074 53.3383 61.7816 53.3275 61.6561C53.324 61.616 53.3201 61.576 53.3168 61.5357C53.3064 61.4062 53.2982 61.2766 53.2904 61.1469C53.2883 61.1092 53.2854 61.0717 53.2832 61.0338C53.2762 60.9016 53.2715 60.7691 53.2672 60.6367C53.266 60.6012 53.2641 60.5658 53.2631 60.5301C53.2586 60.3629 53.2563 60.1957 53.2563 60.0285V54.3342C53.2564 54.3262 53.2564 54.3182 53.2564 54.3117C53.2564 54.3117 53.2564 54.3117 53.2564 54.3115C53.2566 54.1035 53.2619 53.8963 53.2687 53.6893C53.2707 53.6334 53.2717 53.5803 53.2742 53.5229L53.275 53.5059C53.2828 53.3209 53.2943 53.1365 53.3074 52.9525C53.3131 52.8756 53.3187 52.798 53.3256 52.7176C53.341 52.535 53.3584 52.3525 53.3791 52.1707C53.3869 52.1014 53.3957 52.0348 53.4041 51.967C53.423 51.8143 53.4441 51.6621 53.467 51.51C53.4771 51.4414 53.4871 51.3711 53.4975 51.3057C53.5281 51.1146 53.5623 50.9244 53.5988 50.7348C53.608 50.6875 53.6164 50.6412 53.626 50.5934C53.6652 50.3979 53.7082 50.2031 53.7537 50.0088C53.7666 49.9543 53.7795 49.8998 53.793 49.8447C53.8379 49.6609 53.8854 49.4775 53.9359 49.2951C53.9896 49.1 54.0484 48.9068 54.1078 48.7156C54.1242 48.6627 54.1389 48.6094 54.1559 48.5566L54.1666 48.5236C54.168 48.5195 54.1693 48.5154 54.1707 48.5115C54.4488 48.45 54.7279 48.398 55.0074 48.3551C58.1496 47.8719 61.3854 48.5176 64.7389 49.4762C65.8637 49.7977 67.0016 50.1539 68.1539 50.515C72.284 51.8096 76.5545 53.148 81.0699 53.148C81.3094 53.148 81.5467 53.1453 81.782 53.1404C85.2 53.0686 88.1891 52.475 90.7021 51.3705C90.7062 51.3965 90.7094 51.423 90.7133 51.4492C90.742 51.6373 90.768 51.8258 90.791 52.0148C90.8 52.0889 90.808 52.1627 90.816 52.2367C90.8332 52.3932 90.8486 52.5498 90.8621 52.7068C90.8687 52.7855 90.8752 52.8646 90.8811 52.9453C90.8926 53.1043 90.9016 53.2637 90.9092 53.423C90.9119 53.4809 90.9154 53.5396 90.9176 53.5967L90.9193 53.6414C90.9273 53.8639 90.9326 54.0865 90.9326 54.3096C90.9326 54.3105 90.9326 54.3115 90.9326 54.3123C90.9326 54.317 90.9326 54.3227 90.9328 54.3281C90.9328 54.3303 90.9328 54.332 90.9328 54.3342V60.0285C90.9328 60.1957 90.9305 60.3629 90.926 60.5301C90.925 60.5656 90.923 60.601 90.9219 60.6367C90.9176 60.7691 90.9129 60.9016 90.9059 61.0338C90.9039 61.0715 90.9008 61.1092 90.8986 61.1469C90.891 61.2766 90.8826 61.4062 90.8725 61.5357C90.8693 61.576 90.8652 61.6158 90.8617 61.6561C90.8508 61.7818 90.8395 61.9074 90.826 62.0328C90.8211 62.0785 90.8154 62.1238 90.8104 62.1695C90.7969 62.2875 90.7828 62.4055 90.7672 62.5232C90.76 62.5773 90.7521 62.6312 90.7445 62.6852C90.7295 62.7914 90.7139 62.8975 90.6971 63.0035C90.6865 63.0697 90.6754 63.1355 90.6643 63.2016C90.6488 63.2918 90.633 63.382 90.6164 63.4721C90.6016 63.5522 90.5861 63.6322 90.5703 63.7121C90.5561 63.7842 90.5412 63.8563 90.526 63.9281C88.8227 71.9891 81.95 78.1656 73.5521 78.8113C73.5268 78.8133 73.5014 78.8147 73.4762 78.8164C73.3438 78.826 73.2109 78.8348 73.0777 78.8418C73.0119 78.8451 72.9457 78.8471 72.8797 78.8498C72.7838 78.8537 72.6881 78.8582 72.5918 78.8607C72.4264 78.865 72.2605 78.8674 72.0943 78.8674C71.9281 78.8674 71.7623 78.865 71.5969 78.8607C71.5006 78.8582 71.4049 78.8537 71.309 78.8498C71.243 78.8471 71.177 78.8453 71.1109 78.8418C70.9777 78.835 70.8449 78.8262 70.7125 78.8164C70.6871 78.8147 70.6617 78.8133 70.6365 78.8113C62.2391 78.1656 55.3664 71.9891 53.6631 63.9281ZM66.702 96.9803C66.549 97.1141 66.3172 97.1063 66.1736 96.9629L56.9732 87.7699L60.3338 86.7221L69.809 94.2631L66.702 96.9803ZM72.0943 92.3379L63.7305 85.6811C64.5391 84.7357 65.0006 83.5197 65.0006 82.218V80.6143C65.3773 80.7445 65.7578 80.86 66.1402 80.9688C66.1436 80.9697 66.1469 80.9705 66.1502 80.9715C66.4693 81.0621 66.7906 81.1449 67.1135 81.2207C67.1586 81.2313 67.2037 81.2418 67.249 81.2521C67.5297 81.316 67.8119 81.3742 68.0951 81.4268C68.1541 81.4377 68.2129 81.4496 68.2721 81.4602C68.417 81.4857 68.5623 81.5098 68.7078 81.5326C68.8385 81.5531 68.9697 81.5717 69.101 81.5898C69.2672 81.6127 69.4338 81.634 69.601 81.6529C69.7656 81.6719 69.9309 81.6889 70.0967 81.7041C70.1857 81.7121 70.2748 81.7209 70.3641 81.7279C70.6068 81.7471 70.851 81.7617 71.0959 81.7729C71.1613 81.7758 71.227 81.7779 71.2926 81.7803C71.5588 81.79 71.8258 81.7967 72.0945 81.7967C72.3633 81.7967 72.6301 81.79 72.8965 81.7803C72.9621 81.7779 73.0277 81.7758 73.0932 81.7729C73.3381 81.7617 73.5822 81.7471 73.825 81.7279C73.9143 81.7209 74.0033 81.7121 74.0924 81.7041C74.2582 81.6889 74.4234 81.6719 74.5881 81.6529C74.7553 81.634 74.9219 81.6127 75.0881 81.5898C75.2195 81.5717 75.3508 81.5531 75.4812 81.5326C75.6268 81.51 75.7721 81.4859 75.917 81.4602C75.9762 81.4496 76.035 81.4379 76.0939 81.4268C76.3773 81.3742 76.6594 81.316 76.94 81.2521C76.9853 81.2418 77.0305 81.2313 77.0756 81.2207C77.3984 81.1449 77.7197 81.0621 78.0389 80.9715C78.0422 80.9705 78.0455 80.9697 78.0488 80.9688C78.4311 80.86 78.8117 80.7443 79.1885 80.6143V82.218C79.1885 83.5197 79.65 84.7357 80.4584 85.6811L72.0943 92.3379ZM78.0152 96.9629C77.8719 97.1059 77.64 97.1139 77.4875 96.9803L74.3803 94.2627L80.2381 89.6006L83.7174 86.8316C83.7174 86.8316 83.7174 86.8316 83.7176 86.8314L83.8553 86.7219L87.216 87.7697L78.0152 96.9629ZM104.87 122.071C96.4012 122.071 89.4598 115.412 89.0023 107.055C88.9998 107.009 88.9978 106.963 88.9957 106.916C88.9844 106.671 88.977 106.425 88.977 106.178C88.977 105.934 88.9846 105.693 88.9953 105.452C88.9994 105.363 89.0055 105.274 89.0111 105.186C89.0201 105.039 89.0314 104.893 89.0445 104.748C89.0549 104.635 89.065 104.522 89.0777 104.41C89.0893 104.306 89.1035 104.204 89.117 104.101C89.5266 101.019 90.8338 98.1574 92.8088 95.8455C92.8803 95.7621 92.9516 95.6781 93.0248 95.5963C93.0889 95.5244 93.1545 95.4535 93.2197 95.3828C93.3318 95.2619 93.4453 95.1422 93.5611 95.0248C93.5998 94.9855 93.6381 94.9459 93.6771 94.9068C96.5518 92.052 100.508 90.2848 104.87 90.2848C113.633 90.2848 120.763 97.4143 120.763 106.178C120.763 114.941 113.633 122.071 104.87 122.071Z" fill="#F0C808"/>
</svg>
