<svg width="151" height="151" viewBox="0 0 151 151" fill="none" xmlns="http://www.w3.org/2000/svg">
<circle cx="75.5" cy="75.5" r="75.5" fill="white"/>
<g clip-path="url(#clip0_85_395)">
<path d="M39.1289 78.5507C38.5452 79.1199 38.533 80.0545 39.1022 80.6381C39.3913 80.9349 39.7751 81.0837 40.1588 81.0837C40.5304 81.0837 40.9027 80.9448 41.1896 80.6648C44.1399 77.7893 42.9314 75.4227 42.131 73.8564C41.3795 72.3869 41.069 71.7781 42.6521 70.2881C43.2449 69.7296 43.2739 68.795 42.7147 68.2022C42.1562 67.6079 41.2216 67.5804 40.6288 68.1389C37.4313 71.1479 38.6772 73.5863 39.502 75.1999C40.2229 76.6106 40.5212 77.1942 39.1289 78.5507Z" fill="#F0C808"/>
<path d="M47.3 70.6368C46.7163 71.2059 46.7041 72.1405 47.2733 72.7242C47.5624 73.0209 47.9462 73.1697 48.3307 73.1697C48.7015 73.1697 49.0738 73.0309 49.3607 72.7509C52.3125 69.8738 51.1009 67.5072 50.2991 65.9416C49.5468 64.4722 49.2355 63.8634 50.8179 62.3741C51.4114 61.8156 51.4397 60.881 50.8812 60.2882C50.322 59.6939 49.3874 59.6664 48.7946 60.2249C45.5971 63.2347 46.8452 65.6731 47.6715 67.2867C48.3933 68.6966 48.6916 69.2802 47.3 70.6368Z" fill="#F0C808"/>
<path d="M68.9888 62.2711C69.371 62.2711 69.7525 62.1231 70.0417 61.8279C70.5223 61.4014 72.6715 61.4059 73.1461 61.8324C73.7213 62.4107 74.6559 62.4138 75.2335 61.8393C75.8118 61.2648 75.8148 60.3302 75.2403 59.7519C74.173 58.6769 72.3488 58.5556 71.582 58.5556C71.5721 58.5556 71.5622 58.5556 71.5523 58.5556C70.8153 58.5587 68.988 58.6823 67.9344 59.7603C67.3645 60.3432 67.3729 61.2801 67.9565 61.85C68.2434 62.1307 68.6165 62.2711 68.9888 62.2711Z" fill="#F0C808"/>
<path d="M80.9433 62.2711C81.3255 62.2711 81.707 62.1231 81.9954 61.8279C82.476 61.4014 84.626 61.4059 85.1006 61.8324C85.6751 62.4107 86.6097 62.4138 87.188 61.8393C87.7663 61.2648 87.7693 60.3302 87.1948 59.7519C86.1267 58.6769 84.3033 58.5556 83.5365 58.5556C83.5259 58.5556 83.5159 58.5556 83.5068 58.5556C82.7698 58.5587 80.9425 58.6823 79.8889 59.7603C79.319 60.3432 79.3274 61.2801 79.9103 61.8492C80.1979 62.1307 80.5702 62.2711 80.9433 62.2711Z" fill="#F0C808"/>
<path d="M77.7122 44.1689C78.5271 44.1689 79.1878 43.5081 79.1878 42.6926V35.9138C79.1878 35.099 78.5271 34.4383 77.7122 34.4383C76.8967 34.4383 76.236 35.099 76.236 35.9138V42.6926C76.236 43.5081 76.8967 44.1689 77.7122 44.1689Z" fill="#F0C808"/>
<path d="M67.6903 37.5023C66.8755 37.5023 66.2148 38.163 66.2148 38.9786V45.752C66.2148 46.5668 66.8755 47.2275 67.6903 47.2275C68.5059 47.2275 69.1666 46.5668 69.1666 45.752V38.9786C69.1666 38.163 68.5059 37.5023 67.6903 37.5023Z" fill="#F0C808"/>
<path d="M87.7335 47.2275C88.5483 47.2275 89.209 46.5668 89.209 45.7512V38.9778C89.209 38.163 88.5483 37.5023 87.7335 37.5023C86.9179 37.5023 86.2572 38.163 86.2572 38.9778V45.7512C86.2572 46.5668 86.9179 47.2275 87.7335 47.2275Z" fill="#F0C808"/>
<path d="M119.273 76.1679C122.431 76.1679 125 73.5968 125 70.4367V57.5843C125 54.4249 122.431 51.8538 119.273 51.8538H113.007C109.85 51.8538 107.281 54.4249 107.281 57.5843V70.4367C107.281 73.5968 109.85 76.1679 113.007 76.1679H114.664V96.8375H113.442C113.02 96.8375 112.609 96.8909 112.218 96.9908L110.809 91.0247C109.173 84.0872 103.411 80.3359 93.6836 79.8751C93.6768 79.8743 93.6699 79.8743 93.663 79.8743C92.8795 79.8484 92.2104 79.7072 91.6191 79.4264C91.5962 79.4158 91.5741 79.4036 91.5504 79.3936C90.8463 79.0442 90.2519 78.4888 89.7049 77.6854C90.0192 77.4436 90.3305 77.1964 90.6319 76.9385C94.899 73.2955 97.2481 68.6736 97.2481 63.9228V54.4203C97.2702 54.2746 97.2694 54.1304 97.2481 53.9908V44.3022C100.012 42.2759 101.153 39.379 100.306 36.418C99.2737 32.8086 95.5894 30.2878 91.3452 30.2878H87.1819C85.8978 27.3253 83.1055 25.3966 79.5113 25.0525C75.1534 24.636 70.9122 26.7157 68.6722 30.2878H64.695C60.3897 30.2878 56.6513 32.8459 55.6038 36.5088C54.7668 39.4377 55.8868 42.3003 58.6105 44.3015V61.3242V61.3379V64.6887C58.6105 69.6654 61.6425 73.5808 64.1861 75.9879C64.7957 76.5654 65.4411 77.1147 66.111 77.6335C65.5525 78.4682 64.9452 79.0427 64.2204 79.3997C64.2181 79.4013 64.2166 79.402 64.2143 79.4028C63.6101 79.6996 62.925 79.8476 62.1185 79.8743C62.1117 79.8743 62.1048 79.8751 62.0979 79.8751C60.6049 79.946 59.2056 80.0948 57.9002 80.3206C57.8949 80.3214 57.8896 80.3221 57.8842 80.3237C51.4603 81.4383 47.3106 84.4275 45.5093 89.2432H29.9889C27.2377 89.2432 25 91.4847 25 94.2404C25 96.9931 27.2377 99.2331 29.9889 99.2331H33.8249C35.3004 102.664 37.5832 105.586 40.4984 107.789H39.0633C36.6585 107.789 34.7023 109.746 34.7023 112.153V115.167C34.7023 117.573 36.6585 119.531 39.0633 119.531H47.7081C48.5229 119.531 49.1837 118.87 49.1837 118.056C49.1837 117.24 48.5229 116.579 47.7081 116.579H39.0633C38.2858 116.579 37.6541 115.946 37.6541 115.167V112.153C37.6541 111.374 38.2866 110.741 39.0633 110.741H69.8044C70.4826 110.741 71.0503 111.223 71.1845 111.864C71.1891 111.912 71.1967 111.96 71.2067 112.009C71.212 112.056 71.2143 112.104 71.2143 112.153V115.167C71.2143 115.946 70.5818 116.579 69.8044 116.579H54.4312C53.6163 116.579 52.9556 117.24 52.9556 118.056C52.9556 118.87 53.6163 119.531 54.4312 119.531H69.8044C72.2099 119.531 74.1661 117.573 74.1661 115.167V113.182H108.503C108.627 115.805 110.794 117.9 113.441 117.9H116.14C120.354 117.9 123.783 114.469 123.783 110.251V104.486C123.783 100.774 121.127 97.6721 117.616 96.9825V76.1679H119.273ZM107.936 91.7029L109.586 98.6937C108.906 99.5414 108.498 100.616 108.498 101.786V110.23H104.3L101.887 96.2561C101.588 94.477 100.567 93.1365 99.1867 92.5795V83.6066C104.073 84.8578 106.953 87.5327 107.936 91.7029ZM96.2349 83.0558V92.2965H92.4522V82.7216C92.8009 82.7758 93.1671 82.8108 93.5539 82.8238C94.4946 82.8688 95.3865 82.9474 96.2349 83.0558ZM82.3792 92.2965C81.6193 90.5036 79.8431 89.2432 77.7779 89.2432H66.3963V84.7449C69.2116 86.7995 73.2956 87.7173 76.8745 87.8546C77.1873 87.8668 77.5063 87.873 77.8297 87.873C81.7245 87.873 86.3297 86.9788 89.5004 84.6167V92.2965H82.3792ZM75.2548 95.1598C75.4974 94.0619 75.5295 93.0556 75.3586 92.1942H77.7779C78.904 92.1942 79.8203 93.1121 79.8203 94.2404C79.8203 95.3658 78.904 96.2805 77.7779 96.2805H74.9733C75.0763 95.9105 75.1709 95.5374 75.2548 95.1598ZM94.2963 55.3862V59.3642C92.8139 58.7218 90.9073 57.3767 90.6219 54.6714C91.8488 54.8796 93.074 55.1184 94.2963 55.3862ZM65.1741 54.6729C64.8895 57.318 63.0478 58.6661 61.5623 59.3291V55.3832C62.764 55.1169 63.9687 54.8804 65.1741 54.6729ZM61.5623 64.6887V62.4755C62.4771 62.1772 63.726 61.6484 64.8949 60.7459C66.4047 59.5816 68.0939 57.54 68.1664 54.2182C70.3896 53.9252 72.6105 53.7314 74.8146 53.6414C75.6294 53.6086 76.2627 52.9212 76.2299 52.1071C76.1963 51.2923 75.5051 50.6621 74.6948 50.6919C71.981 50.8025 69.2444 51.0634 66.5077 51.4693C66.4955 51.4701 66.4833 51.4701 66.4711 51.4716C66.4185 51.4777 66.3673 51.4861 66.3162 51.4968C64.7301 51.7363 63.1439 52.0247 61.5616 52.3619V43.5195C61.5616 43.0098 61.2991 42.536 60.8658 42.2667C58.7654 40.9583 57.9041 39.202 58.4427 37.3198C59.0218 35.2927 61.3556 33.2396 64.695 33.2396H69.529C70.0829 33.2396 70.5902 32.9299 70.8427 32.437C72.6135 28.9817 76.3298 27.7137 79.2297 27.9914C81.9885 28.2553 84.0446 29.8194 84.7298 32.1761C84.9129 32.8063 85.4904 33.2396 86.1473 33.2396H91.3452C94.7678 33.2396 96.9177 35.3087 97.467 37.2306C98.0057 39.1158 97.1039 40.9514 94.9921 42.2667C94.5587 42.536 94.2963 43.0098 94.2963 43.5195V52.3627C92.7055 52.0285 91.1102 51.7447 89.5149 51.5059C89.4539 51.4914 89.3913 51.4785 89.3272 51.4716C89.3074 51.4693 89.2876 51.4693 89.2677 51.4678C86.7813 51.1038 84.2957 50.8536 81.8291 50.7262C81.0188 50.6835 80.3207 51.3098 80.2788 52.1239C80.2368 52.938 80.8632 53.6322 81.6772 53.6742C83.6517 53.7757 85.64 53.9626 87.6312 54.2227C87.7022 57.688 89.5233 59.7693 91.1499 60.9404C92.276 61.7507 93.4418 62.2267 94.2963 62.4976V63.9228C94.2963 67.7954 92.3141 71.6208 88.7154 74.6939C85.5171 77.4237 81.3301 79.2426 77.7901 79.4402C77.7039 79.4448 77.6146 79.4478 77.5223 79.4478C75.4517 79.447 72.113 78.2431 68.9682 76.0695C68.9201 76.0314 68.869 75.997 68.8171 75.965C67.9207 75.3356 67.0425 74.6268 66.2155 73.844C64.093 71.8352 61.5623 68.6156 61.5623 64.6887ZM77.523 82.3996C77.6688 82.3996 77.813 82.395 77.9533 82.3874C80.9769 82.2188 84.2674 81.1202 87.2597 79.3441C87.6945 79.9834 88.2317 80.6204 88.9076 81.1713C86.4983 83.9629 81.3919 85.0737 76.9882 84.9051C72.4113 84.7296 68.5623 83.2686 66.8839 81.1637C67.5659 80.6052 68.1053 79.9597 68.5425 79.3128C71.6499 81.2209 74.9634 82.3996 77.523 82.3996ZM62.2276 82.8246C62.6579 82.8093 63.0623 82.7666 63.4453 82.7017V89.2432H59.6626V83.0405C60.4759 82.9405 61.3297 82.8673 62.2276 82.8246ZM56.7108 83.5768V89.2432H48.7289C50.1556 86.4295 52.7962 84.5526 56.7108 83.5768ZM29.9889 96.2805C28.8658 96.2805 27.9518 95.3658 27.9518 94.2404C27.9518 93.1121 28.8658 92.1942 29.9889 92.1942H32.4097C32.238 93.0556 32.2701 94.0619 32.5127 95.1598V95.1621C32.5966 95.5397 32.692 95.912 32.7927 96.2805H29.9889ZM46.4241 107.789C40.7722 105.475 36.7599 100.654 35.3951 94.5227C35.1448 93.3928 35.2623 92.5902 35.4767 92.3224C35.508 92.2843 35.5797 92.195 35.9024 92.195H46.5691H46.5744H46.579H71.8643C72.1893 92.195 72.2618 92.2843 72.2923 92.3224C72.506 92.5887 72.6219 93.3905 72.3724 94.522C71.0541 100.477 66.996 105.417 61.4891 107.789H46.4241ZM73.719 110.23C73.0072 108.785 71.5202 107.789 69.8051 107.789H67.2592C70.15 105.56 72.448 102.617 73.9265 99.2324H77.7779C80.1872 99.2324 82.2029 97.5196 82.6706 95.2475H97.7104C98.6954 95.2475 98.9494 96.5911 98.9761 96.7513L101.305 110.23H73.719ZM120.831 104.486V110.251C120.831 112.841 118.727 114.948 116.14 114.948H113.442C112.343 114.948 111.449 114.05 111.449 112.946V101.786C111.449 101.176 111.723 100.631 112.154 100.265C112.168 100.254 112.181 100.243 112.194 100.232C112.536 99.9556 112.97 99.7893 113.441 99.7893H116.14C118.727 99.7893 120.831 101.897 120.831 104.486ZM110.232 70.4367V57.5843C110.232 56.0523 111.477 54.8056 113.007 54.8056H119.273C120.803 54.8056 122.048 56.0523 122.048 57.5843V70.4367C122.048 71.9695 120.803 73.2161 119.273 73.2161H113.007C111.477 73.2161 110.232 71.9695 110.232 70.4367Z" fill="#F0C808"/>
</g>
<defs>
<clipPath id="clip0_85_395">
<rect width="100" height="100" fill="white" transform="translate(25 25)"/>
</clipPath>
</defs>
</svg>
