<svg xmlns="http://www.w3.org/2000/svg" width="151" height="151" fill="none" viewBox="0 0 151 151"><circle cx="75.5" cy="75.5" r="75.5" fill="#fff"/><g clip-path="url(#clip0_85_383)"><path fill="#F0C808" d="M73.7178 74.6895H70.7156V71.6873H73.7178V74.6895ZM67.7135 74.6895H64.7114V71.6873H67.7135V74.6895ZM61.7093 74.6895H58.7071V71.6873H61.7093V74.6895Z"/><path fill="#F0C808" d="M112.452 103.018C112.452 99.7072 109.758 97.0137 106.447 97.0137C105.211 97.0137 104.061 97.3894 103.104 98.0327C102.28 95.7 100.052 94.024 97.441 94.024C96.2076 94.024 95.0599 94.3979 94.1051 95.0381C93.2865 92.6949 91.0537 91.0093 88.4346 91.0093C87.3419 91.0093 86.3161 91.3029 85.4325 91.815V82.0155C85.4325 78.7047 82.739 76.0112 79.4282 76.0112C76.1175 76.0112 73.424 78.7047 73.424 82.0155V100.013L70.4313 100.072C67.1277 100.08 64.4426 102.771 64.4426 106.073L64.4306 112.049H43.0024C41.6228 112.049 40.5006 110.927 40.5006 109.547V41.4991H37.4985V109.547C37.4985 112.582 39.9674 115.051 43.0024 115.051H64.4246L64.4168 118.985L67.6761 125L70.3156 123.57L67.4205 118.227L67.4447 106.077C67.4447 104.421 68.7915 103.074 70.4469 103.074L73.424 103.016V116.528H76.4261V102.958V82.0155C76.4261 80.3601 77.7729 79.0134 79.4282 79.0134C81.0836 79.0134 82.4304 80.3601 82.4304 82.0155V97.0137V107.534H85.4325V97.0137C85.4325 95.3584 86.7793 94.0116 88.4346 94.0116C90.09 94.0116 91.4368 95.3584 91.4368 97.0137V107.534H94.4389V100.028C94.4389 98.3731 95.7857 97.0263 97.441 97.0263C99.0964 97.0263 100.443 98.3731 100.443 100.028V103.018V107.534H103.445V103.018C103.445 101.363 104.792 100.016 106.447 100.016C108.103 100.016 109.45 101.363 109.45 103.022L109.5 124.289L112.502 124.282L112.452 103.018Z"/><path fill="#F0C808" d="M40.5006 30.5039C40.5006 29.1243 41.6228 28.0021 43.0024 28.0021H52.1088V31.1043C52.1088 34.1393 54.5778 36.6082 57.6128 36.6082H74.037C77.0718 36.6082 79.5409 34.1393 79.5409 31.1043V28.0021H89.0353C90.4149 28.0021 91.5371 29.1243 91.5371 30.5039V89.5334H94.5392V30.5039C94.5392 27.469 92.07 25 89.0353 25H79.5407H52.1088H43.0024C39.9674 25 37.4985 27.469 37.4985 30.5039V38.5096H40.5006V30.5039ZM76.5386 28.0021V31.1043C76.5386 32.4839 75.4164 33.6061 74.0368 33.6061H57.6126C56.233 33.6061 55.1108 32.4839 55.1108 31.1043V28.0021H76.5386Z"/><path fill="#F0C808" d="M84.9322 65.3503V62.3481H82.8607C82.1416 54.1849 75.6217 47.6651 67.4583 46.946V45.1677H64.4562V46.946C56.293 47.6651 49.7732 54.1849 49.0541 62.3481H47.0302V65.3503H48.9838H82.9307H84.9322ZM52.066 62.3481C52.817 55.3474 58.7604 49.8779 65.9573 49.8779C73.1542 49.8779 79.0976 55.3474 79.8485 62.3481H52.066Z"/><path fill="#F0C808" d="M48.0309 82.0281H63.0166V85.0302H48.0309V82.0281Z"/><path fill="#F0C808" d="M48.0309 88.0323H63.0166V91.0345H48.0309V88.0323Z"/><path fill="#F0C808" d="M48.0309 94.0366H63.0166V97.0388H48.0309V94.0366Z"/></g><defs><clipPath id="clip0_85_383"><rect width="100" height="100" fill="#fff" transform="translate(25 25)"/></clipPath></defs></svg>