<svg xmlns="http://www.w3.org/2000/svg" width="151" height="151" fill="none" viewBox="0 0 151 151"><circle cx="75.5" cy="75.5" r="75.5" fill="#fff"/><g clip-path="url(#clip0_85_403)"><path fill="#F0C808" d="M114.531 75.9238C114.285 76.0313 114.025 76.084 113.758 76.084C112.979 76.084 112.273 75.6211 111.965 74.9043C111.537 73.916 111.996 72.7637 112.984 72.3379C113.23 72.2305 113.49 72.1777 113.756 72.1777C114.537 72.1777 115.242 72.6406 115.551 73.3574C115.758 73.8359 115.766 74.3672 115.572 74.8516C115.381 75.3379 115.01 75.7168 114.531 75.9238Z"/><path fill="#F0C808" d="M30.8594 93.5547V90.8203C30.8594 87.8262 31.1621 84.832 31.7559 81.9238C32.3361 79.0898 33.2012 76.3027 34.3281 73.6387C35.4357 71.0234 36.8049 68.5 38.3986 66.1406C39.9768 63.8027 41.791 61.6055 43.7873 59.6074C45.7852 57.6113 47.9824 55.7969 50.3205 54.2188C52.6797 52.625 55.2033 51.2559 57.8186 50.1484C60.4826 49.0215 63.2697 48.1562 66.1037 47.5762C66.9213 47.4092 67.7461 47.268 68.5754 47.1473C67.7014 45.9211 67.1875 44.4207 67.1875 42.7734C67.1875 38.4656 70.6922 34.9609 75 34.9609C79.3078 34.9609 82.8125 38.4656 82.8125 42.7734C82.8125 44.4215 82.2982 45.9225 81.4234 47.1488C82.8955 47.3635 84.3547 47.648 85.793 48.0098C89.2012 48.8652 92.5078 50.1348 95.6191 51.7812C98.6758 53.4004 101.547 55.3809 104.15 57.6719C106.742 59.9551 109.068 62.541 111.059 65.3555C111.361 65.7812 111.479 66.3008 111.391 66.8145C111.303 67.3281 111.02 67.7773 110.594 68.0781C110.262 68.3145 109.871 68.4375 109.467 68.4375C108.832 68.4375 108.236 68.1289 107.871 67.6113C100.326 56.9512 88.0371 50.5859 75 50.5859C64.2559 50.5859 54.1523 54.7715 46.5508 62.3711C38.9514 69.9727 34.7676 80.0762 34.7656 90.8203V93.5547H115.234V90.8203C115.234 88.1504 114.971 85.4805 114.453 82.8867C114.35 82.375 114.453 81.8555 114.742 81.4199C115.033 80.9863 115.473 80.6914 115.984 80.5898C116.111 80.5625 116.242 80.5508 116.371 80.5508C117.297 80.5508 118.102 81.2109 118.283 82.1211C118.852 84.9668 119.141 87.8945 119.141 90.8203V93.5547C122.371 93.5547 125 96.1832 125 99.4141C125 102.645 122.371 105.273 119.141 105.273H118.293L115.848 109.35C113.742 112.859 109.892 115.039 105.799 115.039H44.2012C40.1084 115.039 36.258 112.859 34.1523 109.35L31.7066 105.273H30.8594C27.6285 105.273 25 102.645 25 99.4141C25 96.1832 27.6285 93.5547 30.8594 93.5547ZM78.9062 42.7734C78.9062 40.6195 77.1539 38.8672 75 38.8672C72.8461 38.8672 71.0938 40.6195 71.0938 42.7734C71.0938 44.9273 72.8461 46.6797 75 46.6797C77.1539 46.6797 78.9062 44.9273 78.9062 42.7734ZM37.502 107.34C38.9057 109.679 41.4727 111.133 44.2012 111.133H105.799C108.527 111.133 111.094 109.679 112.498 107.34L113.738 105.273H36.2621L37.502 107.34ZM30.8594 101.367H119.141C120.218 101.367 121.094 100.491 121.094 99.4141C121.094 98.3371 120.218 97.4609 119.141 97.4609H30.8594C29.7824 97.4609 28.9062 98.3371 28.9062 99.4141C28.9062 100.491 29.7824 101.367 30.8594 101.367Z"/><path fill="#F0C808" d="M40.9533 88.8867C40.8633 88.8867 40.7734 88.8789 40.6836 88.8672C40.1662 88.7949 39.7092 88.5273 39.3945 88.1113C39.0799 87.6953 38.9453 87.1816 39.0176 86.6641C39.4824 83.3008 40.4746 79.9766 41.9648 76.7832C42.2851 76.0977 42.9805 75.6562 43.7363 75.6562C44.0215 75.6562 44.2988 75.7188 44.5605 75.8398C45.0332 76.0605 45.3926 76.4531 45.5703 76.9434C45.748 77.4336 45.7246 77.9629 45.5039 78.4355C44.1797 81.2734 43.2988 84.2227 42.8867 87.1992C42.7539 88.1602 41.9221 88.8848 40.9533 88.8867Z"/><path fill="#F0C808" d="M48.3828 72.1289C47.9395 72.1289 47.5061 71.9746 47.1602 71.6973C46.7539 71.3711 46.4981 70.9043 46.4414 70.3867C46.3848 69.8672 46.5332 69.3574 46.8613 68.9512C47.2322 68.4883 47.7891 68.2227 48.3848 68.2227C48.8262 68.2227 49.2615 68.375 49.6074 68.6523C50.0137 68.9785 50.2676 69.4453 50.3242 69.9629C50.3809 70.4824 50.2324 70.9922 49.9063 71.3984C49.5332 71.8633 48.9787 72.1289 48.3828 72.1289Z"/></g><defs><clipPath id="clip0_85_403"><rect width="100" height="100" fill="#fff" transform="matrix(-1 0 0 1 125 25)"/></clipPath></defs></svg>